<mxfile host="app.diagrams.net" agent="Mozilla/5.0 (Windows NT 10.0; Win64; x64) AppleWebKit/537.36 (KHTML, like Gecko) Chrome/136.0.0.0 Safari/537.36" version="27.0.5">
  <diagram name="ページ1" id="VTIqqjNWfdupB09QeeTe">
    <mxGraphModel grid="0" page="0" gridSize="10" guides="1" tooltips="1" connect="1" arrows="1" fold="1" pageScale="1" pageWidth="1654" pageHeight="1169" math="0" shadow="0">
      <root>
        <mxCell id="0" />
        <mxCell id="1" parent="0" />
        <mxCell id="-2m1uqKc6dWiNXl9zCf8-7" value="リソース" parent="0" />
        <mxCell id="-2m1uqKc6dWiNXl9zCf8-13" style="edgeStyle=none;curved=1;rounded=0;orthogonalLoop=1;jettySize=auto;html=1;fontSize=12;startSize=8;endSize=8;" edge="1" parent="-2m1uqKc6dWiNXl9zCf8-7" source="-2m1uqKc6dWiNXl9zCf8-8" target="-2m1uqKc6dWiNXl9zCf8-11">
          <mxGeometry relative="1" as="geometry" />
        </mxCell>
        <mxCell id="-2m1uqKc6dWiNXl9zCf8-22" style="edgeStyle=none;curved=1;rounded=0;orthogonalLoop=1;jettySize=auto;html=1;exitX=1;exitY=0.5;exitDx=0;exitDy=0;fontSize=12;startSize=8;endSize=8;" edge="1" parent="-2m1uqKc6dWiNXl9zCf8-7" source="-2m1uqKc6dWiNXl9zCf8-9" target="-2m1uqKc6dWiNXl9zCf8-17">
          <mxGeometry relative="1" as="geometry" />
        </mxCell>
        <mxCell id="-2m1uqKc6dWiNXl9zCf8-50" style="edgeStyle=orthogonalEdgeStyle;rounded=0;orthogonalLoop=1;jettySize=auto;html=1;exitX=1;exitY=0.5;exitDx=0;exitDy=0;entryX=0;entryY=0.5;entryDx=0;entryDy=0;" edge="1" parent="-2m1uqKc6dWiNXl9zCf8-7" source="-2m1uqKc6dWiNXl9zCf8-9" target="-2m1uqKc6dWiNXl9zCf8-47">
          <mxGeometry relative="1" as="geometry">
            <Array as="points">
              <mxPoint x="793" y="321" />
              <mxPoint x="793" y="123" />
            </Array>
          </mxGeometry>
        </mxCell>
        <mxCell id="ulTmoi0-G0CuCnYwr7cr-9" style="edgeStyle=orthogonalEdgeStyle;rounded=0;orthogonalLoop=1;jettySize=auto;html=1;entryX=0;entryY=0.5;entryDx=0;entryDy=0;" edge="1" parent="-2m1uqKc6dWiNXl9zCf8-7" source="-2m1uqKc6dWiNXl9zCf8-9" target="ulTmoi0-G0CuCnYwr7cr-3">
          <mxGeometry relative="1" as="geometry">
            <Array as="points">
              <mxPoint x="793" y="321" />
              <mxPoint x="793" y="502" />
            </Array>
          </mxGeometry>
        </mxCell>
        <mxCell id="-2m1uqKc6dWiNXl9zCf8-9" value="" style="strokeColor=#dddddd;shadow=1;strokeWidth=1;rounded=1;absoluteArcSize=1;arcSize=2;" vertex="1" parent="-2m1uqKc6dWiNXl9zCf8-7">
          <mxGeometry x="542" y="290.5" width="130" height="60" as="geometry" />
        </mxCell>
        <mxCell id="-2m1uqKc6dWiNXl9zCf8-10" value="Cloud Run" style="editableCssRules=.*;html=1;fontColor=#999999;shape=image;verticalLabelPosition=middle;verticalAlign=middle;labelPosition=right;align=left;spacingLeft=20;part=1;points=[];imageAspect=0;image=data:image/svg+xml,PHN2ZyB4bWxucz0iaHR0cDovL3d3dy53My5vcmcvMjAwMC9zdmciIHhtbG5zOnY9Imh0dHBzOi8vdmVjdGEuaW8vbmFubyIgd2lkdGg9IjM2NS40NjQ5OTY3NzA0MjQ5MyIgaGVpZ2h0PSIzNzkuMjIyOTk0NDYzNTc3OTUiIHZpZXdCb3g9IjAgMCA5Ni42OTU5OTkxNDU1MDc4MSAxMDAuMzM1OTk4NTM1MTU2MjUiPiYjeGE7PHN0eWxlIHR5cGU9InRleHQvY3NzIj4mI3hhOwkuc3Qwe2ZpbGw6IzQyODVmNDt9JiN4YTsJLnN0MXtmaWxsOiNhZWNiZmE7fSYjeGE7PC9zdHlsZT4mI3hhOwk8cGF0aCBjbGFzcz0ic3QwIiBkPSJNMjkuNzk0IDEwMC4zMzZMNDYuOTIgNTAuMTY4aDQ5Ljc3NnpNMCA5OS42NzFsMTIuOTc2LTQ5LjUwMkgyOS4yMkwxNi44OTcgOTIuMDU0eiIvPiYjeGE7CTxwYXRoIGNsYXNzPSJzdDEiIGQ9Ik0yOS43OTQgMEw0Ni45MiA1MC4xNjhoNDkuNzc2ek0wIC42NjZsMTIuOTc2IDQ5LjUwMkgyOS4yMkwxNi44OTcgOC4yODN6Ii8+JiN4YTs8L3N2Zz4=;" vertex="1" parent="-2m1uqKc6dWiNXl9zCf8-9">
          <mxGeometry width="30" height="30" relative="1" as="geometry">
            <mxPoint x="15" y="15" as="offset" />
          </mxGeometry>
        </mxCell>
        <mxCell id="-2m1uqKc6dWiNXl9zCf8-14" style="edgeStyle=none;curved=1;rounded=0;orthogonalLoop=1;jettySize=auto;html=1;fontSize=12;startSize=8;endSize=8;" edge="1" parent="-2m1uqKc6dWiNXl9zCf8-7" source="-2m1uqKc6dWiNXl9zCf8-11" target="-2m1uqKc6dWiNXl9zCf8-9">
          <mxGeometry relative="1" as="geometry" />
        </mxCell>
        <mxCell id="-2m1uqKc6dWiNXl9zCf8-27" style="edgeStyle=none;curved=1;rounded=0;orthogonalLoop=1;jettySize=auto;html=1;exitX=0.5;exitY=0;exitDx=0;exitDy=0;fontSize=12;startSize=8;endSize=8;" edge="1" parent="-2m1uqKc6dWiNXl9zCf8-7" source="-2m1uqKc6dWiNXl9zCf8-11" target="-2m1uqKc6dWiNXl9zCf8-25">
          <mxGeometry relative="1" as="geometry" />
        </mxCell>
        <mxCell id="-2m1uqKc6dWiNXl9zCf8-11" value="" style="strokeColor=#dddddd;shadow=1;strokeWidth=1;rounded=1;absoluteArcSize=1;arcSize=2;" vertex="1" parent="-2m1uqKc6dWiNXl9zCf8-7">
          <mxGeometry x="354" y="290.5" width="110" height="60" as="geometry" />
        </mxCell>
        <mxCell id="-2m1uqKc6dWiNXl9zCf8-12" value="Cloud&#xa;Build" style="editableCssRules=.*;html=1;fontColor=#999999;shape=image;verticalLabelPosition=middle;verticalAlign=middle;labelPosition=right;align=left;spacingLeft=20;part=1;points=[];imageAspect=0;image=data:image/svg+xml,PHN2ZyB4bWxucz0iaHR0cDovL3d3dy53My5vcmcvMjAwMC9zdmciIHhtbG5zOnY9Imh0dHBzOi8vdmVjdGEuaW8vbmFubyIgd2lkdGg9IjE3LjMyOTk5OTkyMzcwNjA1NSIgaGVpZ2h0PSIxOS42MTAwMDA2MTAzNTE1NjIiIHZpZXdCb3g9IjAgMCAxNy4zMjk5OTk5MjM3MDYwNTUgMTkuNjEwMDAwNjEwMzUxNTYyIj4mI3hhOwk8c3R5bGUgdHlwZT0idGV4dC9jc3MiPiYjeGE7CS5zdDB7ZmlsbDojNDI4NWY0O30mI3hhOwkuc3Qxe2ZpbGw6IzY2OWRmNjt9JiN4YTsJLnN0MntmaWxsOiNhZWNiZmE7fSYjeGE7CTwvc3R5bGU+JiN4YTsJPHBhdGggY2xhc3M9InN0MCIgZD0iTTEyLjE4IDcuOThMMTEgNy4yOWwtMy41MiA2LjEgMS4xOC42OCAzLjUyLTIuMDN6IiBmaWxsPSIjNDI4NWY0Ii8+JiN4YTsJPHBhdGggY2xhc3M9InN0MSIgZD0iTTYuMzIgMTIuNzJsMy41My02LjA5LTEuMTktLjY5LTMuNTIgMi4wNHY0LjA2eiIgZmlsbD0iIzY2OWRmNiIvPiYjeGE7CTxwYXRoIGNsYXNzPSJzdDIiIGQ9Ik0zLjc1IDcuOThMMCA1LjgxdjkuMmw3Ljk3IDQuNnYtNC4zM2wtNC4yMi0yLjQ0em05LjEzLTEuMmwzLjc2LTIuMTdMOC42NiAwIC42OCA0LjYxbDMuNzYgMi4xNyA0LjIyLTIuNDR6TTkuMzUgMTkuNjFsNy45OC00LjZ2LTkuMmwtMy43NiAyLjE3djQuODZsLTQuMjIgMi40NHoiIGZpbGw9IiNhZWNiZmEiLz4mI3hhOzwvc3ZnPg==;" vertex="1" parent="-2m1uqKc6dWiNXl9zCf8-11">
          <mxGeometry width="26" height="30" relative="1" as="geometry">
            <mxPoint x="17" y="15" as="offset" />
          </mxGeometry>
        </mxCell>
        <mxCell id="-2m1uqKc6dWiNXl9zCf8-16" value="" style="group" vertex="1" connectable="0" parent="-2m1uqKc6dWiNXl9zCf8-7">
          <mxGeometry x="201" y="283" width="75" height="104" as="geometry" />
        </mxCell>
        <mxCell id="-2m1uqKc6dWiNXl9zCf8-8" value="" style="dashed=0;outlineConnect=0;html=1;align=center;labelPosition=center;verticalLabelPosition=bottom;verticalAlign=top;shape=mxgraph.weblogos.github" vertex="1" parent="-2m1uqKc6dWiNXl9zCf8-16">
          <mxGeometry width="75" height="75" as="geometry" />
        </mxCell>
        <mxCell id="-2m1uqKc6dWiNXl9zCf8-15" value="GitHub" style="text;html=1;align=center;verticalAlign=middle;resizable=0;points=[];autosize=1;strokeColor=none;fillColor=none;fontSize=14;" vertex="1" parent="-2m1uqKc6dWiNXl9zCf8-16">
          <mxGeometry x="6.5" y="75" width="62" height="29" as="geometry" />
        </mxCell>
        <mxCell id="-2m1uqKc6dWiNXl9zCf8-18" value="CI/CD&lt;div&gt;パイプライン&lt;/div&gt;" style="text;html=1;align=center;verticalAlign=middle;resizable=0;points=[];autosize=1;strokeColor=none;fillColor=none;fontSize=14;" vertex="1" parent="-2m1uqKc6dWiNXl9zCf8-7">
          <mxGeometry x="358" y="354" width="102" height="46" as="geometry" />
        </mxCell>
        <mxCell id="-2m1uqKc6dWiNXl9zCf8-58" style="edgeStyle=orthogonalEdgeStyle;rounded=0;orthogonalLoop=1;jettySize=auto;html=1;" edge="1" parent="-2m1uqKc6dWiNXl9zCf8-7" source="-2m1uqKc6dWiNXl9zCf8-19" target="-2m1uqKc6dWiNXl9zCf8-56">
          <mxGeometry relative="1" as="geometry" />
        </mxCell>
        <mxCell id="-2m1uqKc6dWiNXl9zCf8-19" value="家計簿分析&lt;div&gt;アプリ&lt;/div&gt;" style="text;html=1;align=center;verticalAlign=middle;resizable=0;points=[];autosize=1;strokeColor=none;fillColor=none;fontSize=14;" vertex="1" parent="-2m1uqKc6dWiNXl9zCf8-7">
          <mxGeometry x="565" y="354" width="88" height="46" as="geometry" />
        </mxCell>
        <mxCell id="-2m1uqKc6dWiNXl9zCf8-21" value="" style="group" vertex="1" connectable="0" parent="-2m1uqKc6dWiNXl9zCf8-7">
          <mxGeometry x="924" y="282" width="78" height="124" as="geometry" />
        </mxCell>
        <mxCell id="-2m1uqKc6dWiNXl9zCf8-17" value="" style="sketch=0;points=[[0,0,0],[0.25,0,0],[0.5,0,0],[0.75,0,0],[1,0,0],[0,1,0],[0.25,1,0],[0.5,1,0],[0.75,1,0],[1,1,0],[0,0.25,0],[0,0.5,0],[0,0.75,0],[1,0.25,0],[1,0.5,0],[1,0.75,0]];outlineConnect=0;fontColor=#232F3E;fillColor=#7AA116;strokeColor=#ffffff;dashed=0;verticalLabelPosition=bottom;verticalAlign=top;align=center;html=1;fontSize=12;fontStyle=0;aspect=fixed;shape=mxgraph.aws4.resourceIcon;resIcon=mxgraph.aws4.s3;" vertex="1" parent="-2m1uqKc6dWiNXl9zCf8-21">
          <mxGeometry y="7" width="65" height="65" as="geometry" />
        </mxCell>
        <mxCell id="-2m1uqKc6dWiNXl9zCf8-20" value="家計簿&lt;div&gt;データ&lt;/div&gt;" style="text;html=1;align=center;verticalAlign=middle;resizable=0;points=[];autosize=1;strokeColor=none;fillColor=none;fontSize=14;" vertex="1" parent="-2m1uqKc6dWiNXl9zCf8-21">
          <mxGeometry x="2.5" y="72" width="60" height="46" as="geometry" />
        </mxCell>
        <mxCell id="-2m1uqKc6dWiNXl9zCf8-26" value="" style="group" vertex="1" connectable="0" parent="-2m1uqKc6dWiNXl9zCf8-7">
          <mxGeometry x="344" y="95" width="130" height="106" as="geometry" />
        </mxCell>
        <mxCell id="-2m1uqKc6dWiNXl9zCf8-23" value="" style="strokeColor=#dddddd;shadow=1;strokeWidth=1;rounded=1;absoluteArcSize=1;arcSize=2;" vertex="1" parent="-2m1uqKc6dWiNXl9zCf8-26">
          <mxGeometry width="130" height="60" as="geometry" />
        </mxCell>
        <mxCell id="-2m1uqKc6dWiNXl9zCf8-24" value="Artifact&#xa;Registry" style="editableCssRules=.*;html=1;fontColor=#999999;shape=image;verticalLabelPosition=middle;verticalAlign=middle;labelPosition=right;align=left;spacingLeft=20;part=1;points=[];imageAspect=0;image=data:image/svg+xml,PHN2ZyB4bWxucz0iaHR0cDovL3d3dy53My5vcmcvMjAwMC9zdmciIHhtbG5zOnY9Imh0dHBzOi8vdmVjdGEuaW8vbmFubyIgd2lkdGg9IjIxLjk5OTAwMDU0OTMxNjQwNiIgaGVpZ2h0PSIyMC4zOTM5OTkwOTk3MzE0NDUiIHZpZXdCb3g9IjAgMCAyMS45OTkwMDA1NDkzMTY0MDYgMjAuMzkzOTk5MDk5NzMxNDQ1Ij4mI3hhOwk8c3R5bGUgdHlwZT0idGV4dC9jc3MiPiYjeGE7CS5zdDB7ZmlsbDojNDI4NWY0O2ZpbGwtcnVsZTpldmVub2RkfSYjeGE7CTwvc3R5bGU+JiN4YTsJPHBhdGggY2xhc3M9InN0MCIgZD0iTTUgMHYyLjQ1OEwxLjk5OSA0LjE5N3YxMi4wMUw1IDE3LjkzOHYyLjQ1NmwtNS0yLjg4N1YyLjg4NnptMTIgMGw0Ljk5OSAyLjg4NnYxNC42MjFMMTcgMjAuMzk0di0yLjQ1NmwzLTEuNzMxVjQuMTk3bC0zLTEuNzM5em0tNi4wMTYgNi42NzNsMi45NDctMS42NDYtMi45NDctMS42NDYtMi45NDcgMS42NDZ6bTMuMjY4LTEuMDk2bC0yLjg3MSAxLjY3OHYzLjI4N2wyLjg3MS0xLjY3NnpNNy43NzMgOC44NjZsMi44NzEgMS42NzRWNy4yNTZMNy43NzMgNS41Nzd6bS0uMjEyIDMuODc4bDIuODItMS42NDYtMi44Mi0xLjY0Ni0yLjgyIDEuNjQ2em0zLjEzMi0xLjA5OGwtMi44NzEgMS42Nzh2My4yODdsMi44NzEtMS42NzZ6bS02LjI2NCAzLjI4OUw3LjMgMTYuNjA5di0zLjI4NWwtMi44NzEtMS42Nzl6bTEwLjAyOS0yLjE5MWwyLjgyLTEuNjQ2LTIuODItMS42NDYtMi44MiAxLjY0NnptMy4xMzItMS4wOThsLTIuODcxIDEuNjc4djMuMjg3bDIuODcxLTEuNjc2em0tNi4yNjQgMy4yODlsMi44NzEgMS42NzR2LTMuMjg1bC0yLjg3MS0xLjY3OXoiLz4mI3hhOzwvc3ZnPg==;" vertex="1" parent="-2m1uqKc6dWiNXl9zCf8-23">
          <mxGeometry width="30" height="27" relative="1" as="geometry">
            <mxPoint x="15" y="16" as="offset" />
          </mxGeometry>
        </mxCell>
        <mxCell id="-2m1uqKc6dWiNXl9zCf8-25" value="イメージ&lt;div&gt;レジストリ&lt;/div&gt;" style="text;html=1;align=center;verticalAlign=middle;resizable=0;points=[];autosize=1;strokeColor=none;fillColor=none;fontSize=14;" vertex="1" parent="-2m1uqKc6dWiNXl9zCf8-26">
          <mxGeometry x="21" y="60" width="88" height="46" as="geometry" />
        </mxCell>
        <mxCell id="-2m1uqKc6dWiNXl9zCf8-49" value="" style="group" vertex="1" connectable="0" parent="-2m1uqKc6dWiNXl9zCf8-7">
          <mxGeometry x="903" y="90" width="99" height="109" as="geometry" />
        </mxCell>
        <mxCell id="-2m1uqKc6dWiNXl9zCf8-47" value="" style="shape=image;verticalLabelPosition=bottom;labelBackgroundColor=default;verticalAlign=top;aspect=fixed;imageAspect=0;image=data:image/png,iVBORw0KGgoAAAANSUhEUgAAAzAAAAMwCAYAAAD/CIUbAAAACXBIWXMAALw9AAC8PQET+GjJAAAAAXNSR0IArs4c6QAAAARnQU1BAACxjwv8YQUAAFN2SURBVHgB7d1NjF31nTf436my8UvSocJiArIJZQk9eaQRHbMhO3zZpFl1YJEe8KQbR62eVR4FFlnM5gF6G41CerLqR1FMJmNInoVNVoQN11mMGi8G08yiecSIItgdGGlIQQDb2FXnuf9TvlA2LtetqnvP+Z9zPh/JsSHdwbiqbp3v/b1FAAAAAAAAAAAAAAAAAAAAAAAAAAAAAAAAAAAAAAAAAAAAAAAAAAAAAAAAAAAAAAAAAAAAAAAAAAAAAAAAAAAAAAAAAAAAAAAAAAAAAAAAAAAAAAAAAAAAAAAAAAAAAAAAAAAAAAAAAAAAAADANBQBQG8MHvnjYvWLuZWFmCsXYrVY++siFqIc/XVZ3FqmX4+Vsbju/33xBv+TN/p7k1i6+d8rlqMol9d+a+Xb6/7+UpSryzFfVP9dXNm1FBcvLg9PHVoOAHpBgAFoscFDby3E3r0LsevKYhVGrgaRMoq7RmFkFETKFEau/v11waSLilge/TumILM0DkBV+ClGv15dXapCzyjwDJ+/YykAaC0BBiBjVcWkuHw4irkURhbXBZPDvQgls7IWdpZGvxoFnVhaq/KMqjtz5dIoCC4PTxw8GwBkSYABaFBVQdm/e3H0y8OfB5SqLWv8g+YsVT/GAacsz1ZVnI+unNWyBtAcAQagBp9VUubmFssyvjkKKamCsqiC0lJrFZyzo2+iZ2Mu3o5iFG5UbgBqIcAATJGg0nNXg02awSnmytNVsFGxAZgqAQZgm6qwMrcyGD2wfrOMKqgcFlS4ofUVm1gdBZu5JdUagO0RYAAmcF1YGaiqMCXDKtQU8dro12eFGoDNCTAA16kG6/fNDyLmjqisUKvrKzXl7rPWPgNcS4ABem9w9FwKKYOrMyuDsP2LvCyNvl2frWZqyhiq0gB9J8AAvTP43juDKIvD5Wp8R3WF1hlXaebihbQkYPirO4cB0CMCDNB5AgudJtAAPSPAAJ1TDdzPrzxUrhZHRg90A4GFXqkCTTHUcgZ0lQADtN7Va/YPlRFHRn/5kMAC11gafbcfFuXqC3FhZegmDdB2AgzQSqktbHV17khRjiosUQ3eA5MZFsWoOjM3qs5oNwNaSIABWmG82rgs5r4TqiwwLaozQOsIMEC2qtDypd3HDN9DbUbVmXg2VueH7s8AuRJggKykAfzVudXHtIZB44bVZrOV+VPCDJATAQZonHkWyN7ZoihfGD02nLLVDGiaAAM0Il2/X43iO6PQcixcvoc2WRo9PJyKcv6nKjNAEwQYoDbaw6Bz0gHNZ7WZAXUSYICZumYQX2iBLrMAAKiFAANM3Wcrj2PuhyG0QA8Vp9LMzPDEweMBMGUCDDA1aRg/VorvlEUcs/IYiPGdmbnyWUczgWkRYIAdSdWW1f23/LCIMh2XPBwAN7ZUFPG0FjNgpwQYYFtStaVcKZ4MLWLAlhWnilh5dvjc108FwBYJMMDE1lVbHtciBkzBWovZ6vzTqjLApAQYYFOqLUANhkWs/lRVBtiMAAPckGoL0BCzMsBNCTDANapqy2paf1wOBBegUUUct8EMuJ4AA1QGR88dK8t4LLSJAfk5O6rK/NRdGSARYKDHtIkBLbNUFnPPzK0WL2gvg/4SYKCHRtWWw6PA8piDk0BrpfYy28uglwQY6BHbxIDOMScDvSPAQA8ILkAPDIsinjUnA90nwECHXR3MT8FlMQD6oVrDLMhAdwkw0DEG8wEqggx0lAADHSG4ANyQw5jQMQIMtJzgAjCRpbIojs+tzj0ryEC7CTDQUoILwLYIMtByAgy0jOACMBVrQeaTT386PHVoOYDWEGCgJQQXgJkw7A8tI8BAC9x/9N9HwWX1KcEFYGYEGWgJAQYy5o4LQO0EGcicAAMZGnzvnUG5UqTgMggAmrBUzK8+MfzV108FkBUBBjIiuABkZ1iU89+3sQzyIcBABgaP/HEx5lafLMvyWACQnyKOF6vzTwsy0DwBBhpksxhAu5RF8ZQbMtAsAQYaYrMYQGsZ9IcGCTBQM3MuAJ2xVMyX3x/+6s5hALURYKAmac6lLFZ+EYILQLeYj4FaCTAwY+ZcAPohzcf8/sSBpwOYKQEGZuhqu1iquiwGAH1gPgZmTICBGdAuBtBz2spgZgQYmCLtYgCsp60Mpk+AgSnRLgbABrSVwRQJMLBDqepS7r/lF1GWDwUAbERbGUzFXADblo5Rlvt3vyW8ALCpMo6VxcrLg6PnjgWwbSowsA2G9AHYkSLOjqoxD6vGwNapwMAW3X/0/JPl3MqrIbwAsF1lHB69EfZW+p4SwJaowMCErg7p/2T0y8MBANOzVJTzD6jGwGQEGNhEtRp53+4nR18sjwcAzIiVyzAZAQZuwmpkAGqmGgObEGDgBlRdAGiSagxsTICB6wyOnjtclnEyVF0AaJZqDNyALWSwTrVhrIy0YWwxAKBZizaVwRepwEC46wJA9lRj4CoVGHrv/qP//kN3XQDIXHqj7dXBo+fMZtJ7KjD0lqoLAK1UxPFidf5p1Rj6SoChl6r1yKvFyShjIQCgfZaKIp4enjh4PKBnBBh6xXpkALrEumX6SIChN662jKX1yIcDALrDgD+9YoifXlg3qC+8ANA1BvzpFRUYOi21jJX7b/lJlOWxAICuSwP+n1x+Ynjq0HJARwkwdNbg6LnDZRmpZWwxAKA/tJTRaVrI6KSqZSzi5RBeAOif1FL2lpYyukoFhk6xZQwAPlfOxTNzH19+WksZXSLA0BlXt4ypugDAtbSU0SlayOiE+x/942NXt4wtBgCw3tqWsqPnjgV0gABD693/6LmfFLFyPMpYCADgRhbKMn5x/9HzTwa0nBYyWutqy9gv0i8DAJjUsCjnv6+ljLYSYGglK5IBYEfMxdBaWshoHSuSAWDHrFqmtVRgaJW1eRcrkgFgWsqieOr3Jw48HdASAgytkO67lPt2p5axQQAA02YuhtYQYMie+y4AUAtzMbSCGRiyNvjeOwP3XQCgFmv3Yh79w0MBGRNgyFY1rL9SvOy+CwDUZqGMuZPuxZAzLWRkybA+ADTLcD+5EmDIimF9AMhJcaq48On3h6cOLQdkQoAhG4b1ASBLhvvJihkYsjA4eu6w8AIAWareYExvNAZkQIChcWnbSRkhvABAvmwoIxsCDI2qNo3F3EmbxgAgezaUkQUBhsbc/8j5J4ty9ZkAAFqjKMunhBiaZIifRliTDADtVs7FM7//Pw8+EVAzAYZaVWuS99/yiyhLPbQA0HrWLFM/AYbaXL3xkob1DwcA0BVni3L+YWuWqYsAQy3ceAGATnMrhtoIMMyc8AIAvSDEUAsBhpkSXgCgV4QYZk6AYWYGR88drg5UuvECAH2yXBTxwPDEwbMBMyDAMBPCCwD0mhDDzDhkydTd/+gfHyvLeFV4AYDeWkjPAumZIGDKVGCYqvRCVcTK8QAAGClj/tjvn7vj2YApEWCYGuEFALgRIYZp0kLGVNx/9N9/KLwAADeSnhHuP3r+yYApEGDYsfsfOf9kUa4+EwAAGyjK8ikhhmnQQsaOVOGlKJ8KAIAJlEXx1O9PHHg6YJsEGLZNeAEAtkOIYScEGLZFeAEAdkKIYbsEGLZMeAEApkGIYTsEGLZEeAEApmn0MPrE8LmDlgExMQGGibnzAgDMgjsxbIUAw0SEFwBgloQYJiXAsCnhBQCogxDDJAQYbmpw9NzhsoxXAwCgBkUR9w5PHDwbsIG5gA1U4SXi5QAAqMnojdOX0zNIwAZUYLihwSN/XCznVl4d1XIXAgCgXstFOX/v8Pk7lgKuowLDF1ThpVh5WXgBABqykJ5F0jNJwHVUYLjGZ+ElYjEAAJq1NKrEPKASw3oCDJ8RXgCADC0VFy7fOzx1aDkgtJBx1eCht1Kp9mQILwBAXhbLfbtfTs8qASHAcFW5/5ZfjH6y8QMAyNHhcv/unwSEAEOkQ5XnfhJl+VAAAOSqjGP3/8/nhBgEmL67/5HzTxYRjwcAQOaK1Xj8/qPnnwx6zRB/j1XhpSifCgCAFhk9wD4xfO7gM0EvCTA9NXj0Dw+VMXcyAABaqIjVh4fPff1U0DsCTA9V65LnVl51qBIAaLHloogHhicOng16xQxMz3x260V4AQDabaEs42R6tgl6RQWmR6pbL/t2vxpuvQAA3eHQZc+owPTI1VsviwEA0B3p0KW53h4RYHoibRxz6wUA6KiBGzH9oYWsB6xLBgD6wHrlfhBgOs66ZACgT4r58oHhr+4cBp0lwHSYdckAQA8tF+X8vcPn71gKOskMTEdZlwwA9NRCegZK21eDThJgOmr0hWvjGADQVzaTdZgA00HVxrFRESYAAPrLZrKOMgPTMfcf/fcfFuWq7RsAAGEzWRcJMB1yde7lrQAAYGy5KOKB4YmDZ4NO0ELWEZ8N7QMAsN5CWcbJ9KwUdIIA0xGG9gEANrR49VmJDhBgOsDQPgDApgz1d4QZmJYbHD13bFQW9Y4CAMAEypg/9vvn7ng2aC0BpsWquZe5lVcdqwQAmNhyUc7fO3z+jqWglbSQtVS6LlsN7QsvAABbUT1DpWepoJUEmJZa3bc7zb0sBgAAW7W4+qXqWYoWEmBaqDpWGfF4AACwLcVqPD549JznqRYyA9MyjlUCAEyNI5ctpALTIp/NvQAAMA1rRy7Nw7SKANMm+29Ju8sXAwCAaVks9+92H6ZFBJiWSHMvZVkeCwAApquMY+Zh2sMMTAu49wIAMHPuw7SECkwLuPcCADBzadbYPEwLCDCZu/+R8+69AADU47D7MPnTQpaxwdFzx8oyfhEAANSmmC8fGP7qzmGQJQEmU1fvvaSVyYsBAECdzMNkTAtZruZWtY4BADQjzcPogsmUAJMhK5MBABo3sFo5T1rIMmNlMgBANrSSZUgFJjNWJgMAZEMrWYYEmIxYmQwAkJ3B4Og7TwXZ0EKWiatbx94KAACyUxRx7/DEwbNB41RgMnF1ZTIAABkqyzg5eOgtbf4ZEGAyoHUMACB7i6tf2v1k0DgtZA3TOgYA0B7FfPnA8Fd3DoPGqMA0TOsYAEB7lCvFL7SSNUuAaZDWMQCA1tFK1jAtZA3ROgYA0F5ayZqjAtMQrWMAAO1VrhQ/CRohwDRA6xgAQOsdduCyGVrIaqZ1DACgM5aLcv7e4fN3LAW1UYGpWTm3cjIAAOiChdEb078IaiXA1Ghw9NyxKONwAADQFYPBo+ceD2qjhawmV1vH0uD+YgAA0CXLxYXLh4anDi0HM6cCU5e5VYP7AADdtFDuu0UrWU1UYGqQWsfKMnxSAwB0mNsw9VCBqcEovLjWCgDQceVK8YvBQ28tBDMlwMyYmy8AAL2xGPt3GeifMS1kM+TmCwBA77gNM2MqMLO0NrgPAEB/uA0zYwLMjKwN7pfHAgCAvhkMvvfOIJgJLWQzcuTRc6l1bDEAMrBvb1H9OPC13bFvTxG3Lcx99vduW5iP226dr/7vLlws4/x7V+LMaxfjzbcvR5Puvmt33PfNPaOfb/ns773/wUr1e7xwcTXeX177ceHS1b8e/XfprwEysVRcuHyv2zDTtyuYurXB/XIxAGpSBZI9c6OAsqv69VpAWfvrcVCZ1IHb56vgcOa1S3HypY+qwFCn9Hs9+td/Efd845Yv/Hfp32szVbC5GnTOv3vls78WcICajQf6nwqmSgVmygzuA7NSVUtGlZIUSlLIGFdUxtWUWTj/7kr87P9Yri3EpH+PH/ztraN/v9m9v5b+nS5cWl0LNx+s/ZyqTnUHNaAXDPTPgArMtKXBfd8DgR1YCya7qof4226dq34eV1LqloLSg/d/qarE1OHBI/tnGl6S9O8UMV+1qK03bp9LP6f2uXHAeX95JQC2aTzQ/0AwNSowUzR45J1BWRQvB8CEUvXk7q/fUj1Up1mUcQtYbn72yw9mPhOT/gx+9A9fjdyMg824UpMqOOlngEkV8+UDw1/dOQymQgVmikbhxco8YEPrw0oaTJ9l69e0pcpICjGzdOS+/ZGj9DFK1ZrrKzbjIDMON00vPQDyVa4U6bTGMJgKAWZK1tYm2zoGrFkfVppsAZuW9PCefv+zmhNJ/9tpcUCbrH1sUzva57/vcevZm29fqVrPVGqAqwaDR889Pnzu4DPBjmkhm4Krg/updWwxgF5KD/hrQeXz6krX/Pw3H8brb3was5D+/H7wd7dG14zbz9Kfm2UB0HvLxYXLh6xV3jkVmClYjdXHCuEFemM8ZH/34lpbUdurK5Ma34qZhVkP7jflRu1n66s0b779qUAD/bFgrfJ0qMDskLXJ0H3jwJLukqQH7etnIfrixdOfxIu//yRm4cH791dzNn2UZmlSkBFooBesVZ4CFZidsjYZOuf6CktfA8v1PFjPxtoszb448q21vx4HmqrtTMsZdM1CObeSBvq/H2ybCswOqL5Ad4wDS1Vl6UlL2FbNcgbmvr/cG0e/8+Xgi1LL2ZtLl9d+tukMOsFa5Z1RgdmBq4eJgBZKAeWe/7BnFFpSa9gegWUCs6wEvP+BY5EbWV8FHB/ZfP2NS59tOgPax1rlnRFgtmnw6B8eGn0rHwTQGtWDoLawbZvlSuB08Z7NVcF7VCVMP5L17WaqM9Aqg8H33hmowmyPALNNZcz9JICsrR++v++be1VZdmimFRiVhG35fH5mX/XxWQsya4HG7AzkTRVm+wSYbXC0EvK1dhBxr1mWKasjYLy/vNrJ+zl1GR8DHR8ETRWZM69d1GoG+RqkZ8rhiYPHgy0RYLZhFF6eDCAb6aE3hRatYbNTR4vXhYvpnyHATMv6r4dxq9mZ1y7NtBUQ2Jqrz5THgy0RYLZI9QXyMJ5nSYP4qY2G2aqjHen8eyudPWjZtPWtZqkak6oya9UZczPQsMXBo+ceHz538JlgYr5TbJHqCzRnHFrSyl2tRvVKl+Nnba0Cw6zdtjAf96Uf39wjzEAGRm8PPTl46K3jw1OHloOJCDBboPoC9RNa8lBHBcYmsvoJM5CFhdi/6/HRz08FEzHdOqFRMl4o9+1+dfTLxQBmajzTIrTk42e//GDmD7WOWeZjHGZOv3LBzAzUY7m4cPmQKsxkVGAmtLr3lh8WUS4GMBNpg1LqzzeIn6cLl2qYgfn/PCjn4vrKzOkzF6vVzLaZwcyowmyBCswEBo/8cbEsVl4O1ReYqvUrj4WWvP2vP/7/Z95Glh6a//N/+mqQL6uZYaZUYSakAjOB1Vh9rBBeYGpSWDnyrbT2+BZ3WlogBZdaZmA8EGdvfYU0VWRef+NStZoZmApVmAl5ctiE6gtMx3gY/8h9+4SWlkkzED/+53reEPzP/+k2c08tY14GpkoVZgIqMJtQfYHt0yLWDXVUX8be/2BFgGmZ6+dlXvz9J1rMYPtUYSbgbdCbUH2B7dEi1i1p5uHEbz+KOhz967+oHoRpv9RaNm4zA7ZEFWYTKjA3M7cyCHdfYCLjLWJaxLrn/eX67rN41747UhBdq8rsjzP/ujYr4+MLE1GF2YSnjJs48ui5t0L1BW4qVVsePLJfi1iHnXjhz9UDaB3cgum2VJFZq8yoysAmVGFuQgVmA4Oj546Vqi9wQ6ot/fL+B/VVYC5cqu+fRf3SPFz6oSoDm1KFuQkBZgOj8PJkANcQXPqpjiOWY3WGJZqTBv8fvH9/9SOFmDT4L8jAtcqy+GEIMDckwNyA6gtcS3Dpt/Pv1rca10Ns/4xnZU6/cjFOn7ngcwA+t5CeSYcnDh4PriHA3IDqC3wuzbYc/esvV++Y0j91rlAe//NSxWffHkG5b9Lmwnu+sbuqxjiOCWuuPpMeD65h2f51UtINg/tQefivvhQ/+LtbhZceS3dZ6nbhQr2hiXyk15q0Svvhb1vkAFctDr73ziC4hgBznVHSfSyg59JDxI/+YaFqGaPf6lyhPOaaO6ka85//01e9eQIj5UqhM+g6Asw6g0eqhDsI6LH0wPCDv/1KHLhdhynNzKTU3bZGnsavRUIMxEAV5loCzHpzc6ov9JoHBq7XRJgwxM3YuBp84GveUKHfVGGuJcBcNXjkj4tlWR4L6CnhhRtpop2ribY18pU2H5rFg1EV5ui5w0FFgBmbW5Vs6S3hhY00UYFxzJLrVSHGaxR95432zwgwofoCHgzYSBNbyM6/p4WML0qvUX//3a+4RUVvlVE8NnjorYVAgKkUKw8F9FRalSy8sJEm2rkuXFSB4cYO3D4fD97/pYCeWoj9ux4PBJikjPhhQA+l69dWJbORptYZp7Y1czBsZO3g5Z6APirLwjNrCDAOV9JbqQ3jwfv3B2ykyXXGbsFwMw9/e79WMvpq4eqza6/1PsCovtBXqfKidYybOf9ucyHCKmVuJr12HfmW6jH95Oh6zwNMdbiyDCvp6J30zf/BI6ov3Nybb1+Oppx/V4Dh5lIF2Zsw9FTvD1v2uwLjcCU9pXWMSbz/QXNzKG/+obnwRHt4LaOvypW5XncQ9TbAWJ1MX6V3LNPwPtxMmn9puoXswqXmZnBoh/RaZhaGfioHfV6p3N8KzNzKIKCH7vtL4YXN5TBE32SAoj3MwtBTvV6p3NsAU5bxZEAPqb4wiRzCgwDDJKyCp6/6vFK5lwFm8Ogf0uHKxYCeufuu3YZemUiTA/w5/R7IX2ohS69t0EMLfR3m72WAKaPfg0/01z3fuCVgEuffa34LmADDpLy20VflStHLjqLeBZg0vJ9+Cugh71Iyifc/WMniDktaJPD+cnOb0GgPAYYe6+Uwf/8qMHOrZl/opdRmceD2XQGbeXMpn9kTVRgmkVpjbSOjt3o4zN+7AFOW5SCgh1RfmNSbb38auXhzSYBhMl7j6Ks+DvP3KsAY3qfPDnxN9YXJvPl2RhUYBy2ZkNc4eqx3w/w9q8DMPxbQU9rHmEQu8y9j6fdiDoZJ3LbQ39N20Ldh/t58tafh/TLKhwJ6Sn84k8hp/mXs9TcuBWzGinh6rlfD/P15u2JuZRDQY/v2CDBsLsewYJCfSdx2qwoMPdejYf7efLWXZdg+Rq/t2+ubO5vLMSwIMACbK6P4TvREL55oBo9Ug02LAcCGUlBIt1dyk35PQgzAJso43Jdh/n68JTs3Z3gfYBOv/1s+65Ov9/ob+f7eALKxEr2Y9+5FgHH7BWBzr/83AQagzcooHuvDMH/nA8zg6LljoX0M4KbOv3clq/XJ10u/N21kAJtaiC/PD6Ljul+BKfsz0ASwXW24eN+G3yNA08qVuR9Gx3U6wLj9AjCZM/+a/60VFRiAiXT+Jky3KzBuvwBs6v0PVuL8u/kdsLxeCjBCDMAE9u0+Fh3W6QBTlmH7GMAmzrzWnkv32sgANldGdHqEorMBJrWPpZ8CgJtqU4BpQ6sbQAYGV5+FO6m7FZhixewLwCZy3z52PdvIACY0d+VYdFRnA0xZaB8D2MzpVy5E27gJA7C5siyOREd1MsBUJbMyDgcAN/Xm2/kP71/vzGsX48KlMgC4qc62kXWzAlNceTwAuKk0+9Km9rGxCxdLw/wAk+hoG1knA0wZjlcCbCZVMtqqja1vAHUry6KTIxWdCzCD755LrWOLAcCG0u2XNg/Dp997WkAAwE0tDr73ziA6pnsVmN2l7WMAm3jx9CfRdq//m2F+gE2tdu+sSOcCjPYxgM21cXj/eqfPXDDMD7CJLm4j61SAsX0MYHNtHd6/XhrmP3O2vXM8ADXp3DayblVgHK8E2NSLv29/+9iYmzAAE+jYNrJOBZgyQvsYwE2k4fcuVF/G0r9Pm5cRANSha21knQkwV0tjgwBgQ21enbyRLiwkAJixweChtxaiI7pTgZlbGQQAG0qrk9P8S9eowgBMYN/uY9ERnQkwZRmdPNQDMC1drlR0sbIEME1dGrXoRIAZHKtKYoMA4Ia6Wn0ZqzarfdCd2R6AGTjclTayblRgLs0PAoAN9WFO5PQrqjAAN7EQ+7rxzNyNAFPM2z4GsIGuV1/GUhuZw5YAGyuLuU48M3ciwJRlOQgAbqgvW7rSYcvT/3IhANhAGZ24mdj6ADP47rnDo58WA4Av6Ev1ZSwd6TQLA7ChhcH33hlEy7W/ArO77ESSBJiFPt5IcRcG4CZW27/4qvUBpmuXRQGmpW/VlzEbyQA21oVn51YHGOuTATbW50rEiRc+CgBuaND2dcrtrsBYnwxwQ32tvoy9+fbl6gcAN7B/d6tHMNodYKxPBrihn/3yw+g7szAAN1ZGtLqNrNUBxvpkgC+qZkCWzYCkCkyfq1AAG2r5OuXWBhjrkwFuLK0SZs3Jlz5y3BLgixYGj/xxMVqqvRWYXYb3Aa5X3UFRffmM45YAGyhWWluFaXELmfXJAOulwX1zH1/kuCXADbR4FKO1AaYszL8ArCe8bMxaZYBrlUV7iwGtDDCDR94ZRBmt3l8NME1pWN3A+sYM9AN8wcLge6Nn6hZqZwWmKA4HAJWqdczg/qYM9ANcZ6Wdz9StDDCjbz/uvwBclVrHDO5vLg30v3j64wBgTVufqVtagQkVGIDQGrVVp1+5WP2ZAVBRgamD+ReANakd6sRvDadvVfoz00oGUGnlHEz7KjDmXwAqLw61jm1H+jPTSgZwVQvnYFoXYMy/AKxtHTt9xoHG7dJKBrCmjc/WLazAmH8B+s3Wsen4+W8+1EoG0MI5mFYFmMF3zx02/wL0na1j05G2kv381x8GQM8tDI6ea1WIaVcFZlcMAqDHTr9ywdaxKUptZOnPFKDXynY9Y7eshaw4EgA9lVrHTr5k+HzaUjve+feuBEBflUV8M1qkVQGmjNL8C9BLaVbjZ7/U7jQLVSvZb/5sHgboLxWY2Rg88sfF0U+LAdBDVibPVvqzPfk7N3WA3locPPRWa+bM21OBKS6rvgC9lGY0rEyevWo1tXkYoK/2zQ+iJVrUQlYMAqBn0myGuZf6pD9r92GAfmrPs3ZrAkwZRauGiwB2Kg3tp9kM6nXitx9Vf/YAfdKmZ+0WtZA5YAn0Swov5l7ql/7MHbkEeqg1z9qtCDAOWAJ9c/J3H8f5d632bcr5dw31A72zcHVpVvbaUYHZrfoC9Ee6S2Jov3lpqP/F058EQG/MrQyiBdoRYEr3X4B+8NCclxQm08cEoBda8szdigBjgB/og7WNY9qWcpM+JuljA9B1ZVEciRZoyxD/IAA6bLxxLF2FJy/pY/KzX35gMxnQfWU7jsZnH2CqAX6ADksPxj/75Yc2jmVsLcR8KMQAXdeKQf78KzC7VhcDoKPSql7hpR3Sxyh9rKxXBjqtBYP8LWgha89VUICtWAsvHwgvLbIWYpaFGKC7WjDIn32AMcAPdFUKL269tE+6ESPEAF3Vhmfv/CswhRswQPec+O2fhZcWSyHm57/+MAA6SAVmJwbH3loYxcCFAOiQFF7cFmm/N9++XH0sATom+0H+vCswF3epvgCdIrx0S/pYCjFA5xSXs34GzzvAFIUAA3SG8NJN6WOa5pnMxADdMbcYGct8BqYd10ABbiY92P74vywLLx2W2skM9gNdURaR9SB/1gGmjNL8C9Bq41XJBva7b7ydzLFLoAO0kG2bDWRAi6UH2R//87Lw0iNrIeZDIQZotzIWI2PZBpjBd88dtoEMaKv0AFs9yDpS2Ttrxy6FGKDVst5Elm8FZl77GNBO59+7Irz03DjEpM8FgFbKeBNZvgHGBjKghcYbqYQX0udAaiE8/cqFAGiffDeR7YpslYtpCAagLV78/Sfx4ulPAtY7+dLHceFiGQ8e2R8AbZHzJrJsA0wZRdbr2wDG0qaxF4efxOkz3mnnxlK4vXBpNR7+9pcDoCWy7YbKtwKTNpBZpw9kLg1q//w3f7ZpjE2dfuVivP7G5fjB330lbrt1PgCylvEmsixnYAbH3lqwgQzI3XhYX3hhUob7gRZZGDz0VpbP43kO8V/cZYAfyFoazE4D2ob12arxcL95KSB7+3cvRobybCEr0gplA/xAftK8y8nffVRtG4OdSHMxqQXx4b/6cuzb43sekKVUVDgbmck0wBTmX4DspLafNO+i6sK0pCD85ttXzMUAmUpbgfOTZwtZmecfFtBfqWXMfRdmIX1O/eM//UlLGZCdMoq7IkNZVmDKmMvyDwvon9Tic+KFj0bvkl8OmKXUUpY+z45+58uqMUAWikw3keVZgYl817YB/fH6G59Ww9bCC3VJn2tpS5kZKyAHZabP5LnegVkMgIakQf0TL/y5CjBQt9RSduK3fx6FmU/jwSP7VWOAJi1GhrKrwAy+e84KZaAxKbT84z+9L7zQuFSFUY0BmjZ45I+LkZn8KjDzVigD9TPrQo5UY4DGFZdTcWEpMpJfgJkrFq1QBuqUNoylAeoLF734kKdUhUlVwQfv3x9HvrUvAGpTzC1EZjKcgUkrlFVggNlL1Za0ulbVhTZIAfvkSx/H6TMX4+//5i/iwNdyHWMFuiW/8yb5vfqVAgwwW2lI/+TvPjJbQCultrK0He++b+7RVgbMXI63YLILMG7AALOSgsvpf7kwegf7gnYxWi8F8PQjtZWlIAMwC8Vq+dXITH4VmCIWzMAA05Ye9E6+9JHgQuek+a0z/7oWZFJVBmCayqL4ZmQmxwbaxQCYkjTfcuK3H1VtN9BV421lKcwIMsCUGeLfVJnfHxLQPgb06SNBBpiBhcFDby0MTx1ajkxkFWDSoZwyvEsKbJ/gAoIMMGV796YCgwBzY1cWbSADtmNtoPmi4ALrCDLAVOxKz+j5HLPMK8AU5YIAA0zKVjGYzPVB5u7FXdYvA5NbLRYjI5lVYOYWA2ATqcqSrpKniovgApMbB5nEHRlgYpnNqOdXgSlVYIAvStWWN5cux+lXLmgTgykY35G5+67dozCzV3sZsLGqSyofeQWYslzUQgasp9oCs5W+xqrlF7//ZBRmdsWRb+2LA1/L8coC0JQyiqwOzWf2CjV/a7hiCTNx4eLq6D/nog3Gsy3jBytg9lJ72Zn0Y1SVuW1hvnWzMul1A5iNYrX8amQkqwBTRl7lKeiSFAQO3J7vu6rp4ePM2YtVtUVogWatn5UZt5jlHmbOv+sMA8xMUdwaGcntaWYxgJlIwSC1huTk/eXVz1YfCy2Qp/VfnynM3PONW0ZhZnd2bWbptQSYjTKzZ/TMhvhjQQcZzMb4ISQ9gDQlVVnOv3ulClOvv3GpCjBAe6wPM6nNLM3MrAWaW2LfnuZmWN//YMWbIDBbhvg3lNmKNuiaky99FD/6h/raWMeBJW0PU2WBblk/M5OkN0eqH6k6c/uuWgPNz375YQAzldUzejYrvwbH3looL+3+UwAzdeRbe+Phb385ZiFVVN58+9M4/97K2s960qG3UphJQSZVaVK1ZlYtZyd/93F1zBaYreLC5a8OTx1ajgzkU4G5uHchCg87MGunX7lYBY2H/+pL2x7ITZWV9O5rqq6ksLL28xVrjoHPjKuup19Z++t9e4sqxKRQk36+bWFuR5Wa9Dp08ncffVYBAmZs795UhRFgrnVl0Q0YqEeaQUnBI61Jvec/bty7fn1QqX49CipmV4CtSm9w3KiVNAWZ9GZKCjO33boWam4WbMZr1lPVxZsmUKO5lWzayFyqgp76bE3qbz9v9UgPDJ+FFkEFqEF6nVlrP7022Kyv2Ixfm1R7oUFz+Zw7ySfAFOkPRQUGmmDAHsjNRhUboCGrxWJkIp+z3MWcDWQAAMBN5RNgolwMAAAgPxmdO8kowAAAAFkq8pmBEWAAAICbU4G5gVILGQAA5KgsilsjEyowAABAa2QUYOazSXUAAECesgkwZeQzGAQAAHyuKGMxMqGFDAAAaA0BBgAAaI2cAsxiAAAA2SkzelZXgQEAAFpDgAEAAFpDgAEAAFpDgAEAAFrDED8AALCZxciECgwAANAaAgwAANAaAgwAANAaAgwAANAaAgwAANAaAgwAANAauwLorQNf21X9uG1h7b2M95dX48KlMi5cXI3z710Z/VwGQBP27S3itlvnq9eoZP3r1PsfrMSbb18OoJ8EGOihB4/sjyP37aseEG7m/eWV0YPCary5dHkUaFaqUJP+HsA0pXBy4Gu74+670hsq89e8sbKR9Fp05l8vxYunPwmgXwQY6Jkf/cNCHLh9si/99CCRftx91+7P/l6qyqQgc/7dK1W4ST97JxSYxLiqcvfi7lFIma9CSwoqm72ZciPptenB+/dXr08/++UHAfSHAAM9ct8390wcXjaSHjTSA8P6UJOkELMWZq6o1ACVFE7u/voto9ed9EbILdsOKzeTXouOfGtfnH7lQgD9IMBAj6R3K2dlHGqOfGvtr1OASWHmzbc/rX4WaKD7UkC55xt7qurKOLDU4ch9ewUY6BEBBnqiat1YmI+6pH/WfenHqOqTCDTQPel15Z7/sCfuXtxVa2C5Xnq9Sb8Xi0egHwQY6Ik6w8tG//z1geb8uytVmHn9jU/N0ECLpErrPd+4pQosqTUsFwIM9EdOAWZp9GMxgJnI7Rt7evA5cPu+qnc9/d7WgsxaoPEQAvlYX2VJ7WHTnmEBWmMpMqECAz2RbrvkKj0QpcrMuDqTKjJnXruo1QwasvY1ubeqtKSVxm0ILd74gP4QYKAn0jf3dKRy3578H0TWbzkbhxmVGZit9aHl+i2Duate37w+QG8IMNAjFy60I8Cstz7MnHntUhVkXn/jUgDTkb6+0nHbtlRabuT9D1RqoU8EGOiRdJ/ltoVboq3GbWbvL++v2ste/P0nWsxgG8aD+Kni0oWZlveX822RBabPED/0SFce9tdvNBu3mKXqDLCxNreIbcYbGTB7hSF+oAnvf9C9dynHLWbpSKeqDHzRbVfD/pH79nV2g5gKDPSLAAM90uUH+/VVmVSNWdti5r4M/TWebelateVGUnss0B/ZBJgiVt8uo5kLvtAX59/rR2Xi81mZlaoio72MPkktYum+Uh+Cy5gAAzUoyw8iEyow0CPpgb4tq5SnIVVljv71X1TtZYIMXTaebzly397q875PrFCGepRzxZ8iEwIM9Mz7f1qJA7f360tfkKGrUnBJ1ZYuz7dsRvUF+iejp5hiOYCZS21kfQswY4IMXZKCS/pc7mtwGTv/rgADdSiifDsykc9TTBHLoQIMM7f2buWe6DNBhjZL813pc7dvrWIbsYEM+iefAFOqwEAdvFv5ufVB5sRvP7K1jKz1aavYVmghg/5RgYGe8c3+i1KQ+cHf3VpVYtyRITdrQfvLgssGvKZBXYqlyIQhfuiZtK0ntVzctmBt+fXG65dTiHnx9CcBTTKgv7kUXmwgg5qUq9l0S+UTYFbLpSi8QEMdUqvUfQv9noO5mdRSdt9f7jEfQ2NStSVVXcy53Nz5d1VLoTbz+Yx75BNgVkZ/KOpBUAuD/Jsbz8fcfdct2sqojXaxrXnz7U8D6J98IsP8/CjVeUCAOhhWn1xqKbv7rl2qMcyctchbl9bCAzW5smspMpFPgNl7cTkueccJ6pA2kV24VMa+PR6UJjGuxqRL52lbmWoM06Tqsj1p9sVWRajRxYvZtJBlM8U7PH7IGmWokW/8W5ceMH/wt1+pqjIwDanq8qN/WBBetkElGeo1PJXPs3pea4jSKmWgFq+/oXd8O8bVmPTDgDXbldrE/v5vvhIPf/tLWsa26c0lAQZqlNUzel5j82X1h7MQwMypwOzMeDbm57/5szsUbIkNY9Px5h8EGKhRVgEmt0MQSwHUIrVfpDkYti89gP7of1morqPDJNKQfjqaKrzsjPkXqFeR2TN6VgGmiHz2S0MfaMGYjvRQmtqBPJSykdQmloKLsDsd5l+gZmX5QWQkswrMSlZ/ONB1HgKm555v3FIN+AsxXO/A7bsM6k/Z629YaQ51KueKP0VGMhviL5YCqI1B/umqWspGD6ppsxQkaVbqB3+rZWza3nxb+xjUqYjy7chIXgGm1EIGdUr3TN5fXg2mJ7UKpc1SWoVIrYVpW50tY9OVlma4xQQ1y+wZ3Rpl6DmtGLORHl4f/vaXg/5JgSUFFyF2NszuQRNWlyIjeQWY1XIpgFppI5udI9/aGz/6h69qH+qRalj/b2917HSGvGZBA+ZVYG5i11IAtbJOebYO3D5vuL8nxjNQaWif2Xj/gxXLR6AJV/J6Rs8rwOy9qIUMGvD6v3lHc5bSg60Q020+xvV4c8nwPjRh+PwdS5GRrALM8PihZXMwUL8zr10MZssDbneliouPbT3M7EEjsns2z6yFbKQUYKBuaauPNrLZ+6zF6GtajLpiLbxYk1yHCxdL8y/QhCKWIjPZBZgiirMB1Kp6MNBGVovxRXYhpv3G4cWa5HoIL9CMIsPiQn4VmFj5IIDaaSOrjxDTfsJL/bxGQTNKFZgJFMVSALXTRlYvIaa9hJf62T4GzSmifDsyk2EFRoCBJqQ2sjNnvcNZp/QA/Pd/8xfmJ1okfaz+/rt/IbzUzPYxaFJ+z+YZDvGvGuKHhugxr5/tZO3hY9Uc7WPQoLn8Ds1nGGB2G+KHhjhq2QwPxvnzMWqO9jFo2GphiH8zuR3Kgb45/S8XgvqttSZ9RWtShqpWv+9q9WvK6X9RfYEmDU8czK64kOEMTGUpgEacPiPANOXA7fPx8Le/HOTl6F//RTW4TzNe/29aW6FBS5EhAQa4Rhrm167RnPu+uScePLI/yMOD9++Pe75xS9CMNJf3/vJKAM0oBJjJFbGa3bo26JMXT38SNCc9NB/51r6gWeljIEw2y/A+NCvHGzBJnhUYt2CgUYb5m5dCjBsxzUktYw9/+0tBc9Lwvs2I0Kwcb8AkmbaQCTDQNMP8zXIjpjnjWy8068xrlwJoWFlmuR04zwBzOaxShoYZ5m9eepA++teG+utm41geBBjIwHx+K5STPAPMly4vBdAow/x5uPuu3TaT1ahq3bNxrHEpvBjehwx8dEUFZlLD44eWo4gsEx/0iWH+PBz51t4qyDBbaduYof08GN6HLCwPTx1SgdmipQAalSowqjB5+Pu/cQV+ltKfraH9PJx/74rXHchAEfmOdGQbYIpy9bUAGued0DykoX7zMLOT/mwFxDycfsX8HeShzPZZPOMKzJxBfshA6kW3UjkPqY3MfZjpS3MvWvTykFYnG96HXOS7FTjjALO6FEAWrFTOR3rYVimYnvRnae4lH+buICPzea5QTvINMOVuFRjIRFqprAqTB61k0/WDv/1KkAeHKyEzq3muUE6yDTDD5+9YsokM8pBWKqvC5EMr2XSoZuWlale96I0SyMTy8MRBFZhtWgogC6owefHwvTNax/Jj9gXykfMGsiTrAGMTGeRDFSYvWsl2RutYXhyuhMyU5QeRscwrMDaRQU5UYfKilWx77vvmHtWrzLz4e8P7kJWiGEbGMg8wNpFBTlRh8pNayVI1hslUrWP3ax3LieoLZCjjDWRJ3gHGJjLIjipMXlJ4efB+F+QnZXYoP6ovkKGPrggw22UTGeRHFSY/R7611yHGCaTgktrHyIfqC2RpeXjqUNbP37lvIRtVYfLeggB9pAqTHxu1NmdwPy/p7ovqC+Qn9w1kSfYBpojSJjLIjCpMflIF5p5vqC5sxOB+flRfIFf5P3vnX4EpChUYyJAqTH4e/raB/o0Y3M9Lqr64+wK5KoeRufwDzOr8MIDsqMLkJ1UYrFX+ovRnovqSlxdPf6L6Arkq5pYic9kHGIP8kK9UhUnvpJKPI/ftU4VZpwp19+0N8qH6AnkbnjhoBmZKlgLITqrCpHdSyUcKL6own7vvL82+5MZrBuRr9PbXMFqgFQGmKMvTAWQpvZP65tuXg3yowqyxNjk/qi+Qu3Ysz2pHBcYgP2TNO6p5UYVZ42hlfn7+6z8HkLGyHc/c7QgwBvkha6kC8/ob3lXNSd+rMKov+UmVl/PvXQkgY3PtuL/YigBjkB/yd/KlT6xVzkjfqzBp9oW8OFoJ2VtuwwB/0pYh/lFJqx2JEPoqrUS1Vjkvfa3CqL7kJ4UXa5Mhb6PvFq151m5NgClaMlQEfWatcl76WoW5+65dZl8ykl4TzMlBG7TnWbs9FZgWXAWFvktrlU+88FGQj1SF6Zs0vE8+hBdoi/Y8a7cnwOxZGQaQvTTQb61yPlIVpk/tVOnfVfUlH2lw39pkaIlytxayaRseP5SG+JcCyN6J335koD8j932zP5foVV/yYnAfWmOpWprVEi1qIUtzMKsOWkILGOjPy9137a5+dF36d1R9yYfBfWiPomzXrHmrAszot2sTGbRE9fBioD8bDx7pfmWiT5Wm3Bnch5YpimG0SLsCzJUYBtAaBvrzkaoTXV6pbHVyXn72yw8DaJGiXc/YrQoww/968KyDltAeaZj/9CtayXLR5ZXKDlfmI33Nax2DVmnNAcuxlrWQhYOW0DJayfLR5ZXKqi95qFrHDO5Dq7TpgOVY6wLM6A/5hQBaw22YfKQWsi4O89/zjVsM72cizb2kr3mgVVr3bN3CCkypAgMto5UsH10c5je8nwc3X6Cl5tv3bN26ADN8/s6hORhoH61keTjwtV2dGuZPlZdUgaFZWsegtZaHvxo9W7dM+yowiTkYaB2tZHlI4eW+v+xOxeLuu3YFzUutYwb3oX3aOP+StDLAmIOBdtJKlod7/mN3KhZdXkzQFulrWusYtFYrn6lbWoExBwNtpZWseWsX69v58r9eah87cLsKTJO0jkHLtXD+JWnldzBzMNBeWsny0IXB9yP3Gd5v2s9/82dbx6C9Wjn/krT2LbiiLIYBtJJWsuZ14fCj4f1mpcrL+XevBNBORVmejpZqcQ9Be//QgYiTL30c59/z8NOU1H7V5pswqXXM7ZfmVK1jp7WOQasV7S0GtDfAlPOnAmi1qv3kkvaTpty92N4A04UKUlulr9mf/fLDAFquiGG0VGsDzPD5O5bMwUC7pbWrL57+OGhGm0OA9rHmvDi0Mhk6YGl44mBrl2K1eg1NUa5apwwtd/qVi/H6G1awNiG1YLVxG5n2seakdcmnz5hfg9ZrcfUlafcezWJuGEDrnfjtR1YrN6SN28jaPLvTZlYmQ3e0vQjQ7gBzy2VzMNABVis3p41hwPxLM9Lci9Yx6IgLK8NosVYHmOHxQ2kGZhhA66XVyidfEmLqlgLMvr1FtIXjlc2oDtAKL9AJo1f84fDUoVbPkbf+FHObd1gD10rzMCnIUK97/kN7BuLvvkt4qVuae7EyGTqkaP+zc+sDTKjAQKf8/DcfmoepWZvWKd/zDe1jdTL3Al1UtH4Eo/UBZvj8nUPrlKE70jxMCjHUp02hoM23a9rI3At0TqvXJ491oQJjnTJ0zPl3V8zD1CjNwLRhmL+a19nTnnmdtjv5u4+FF+ialq9PHutEgBmxjQw6Js3DnH7FvYm6tKGy4XhlfdLXnnsv0D1dedO/GwFmz4o2Muig1Ht//r0rwey1oQJj+1g90tzLyZc+DqCDWr4+eawTAaZap1xG6/v5gGutzcP8OS5cKoPZyn2dclva3NouhZc09wJ0TxfWJ491pYUsfVDMwUAHpR78n//aA1UdDnwt3wqH8FKP9IaBuRfoqDKejY7oTICJPZePB9BJjlzWI+cZEwFm9qqWzXe1bEJ3zQ+jIzoTYKo2MjdhoLMM9c9ezjMm5l9mK31tOVYJ3VW1jz1/x1J0RHcqMJE2K7T/siiwMUP9s5XrHIz5l9lKX1OG9qHzOjVq0akAE7HreACdNR7qT4PGzEaOczA5z+a0XfpaSl9TQMeV8506OdKpAHO1NDYMoLOqof7ffGgz2YzkGBZUX2YjfQ2ljWOG9qHjijjbpfaxpGMVGG1k0Afn312Jk78z1D8LOR60bMORzTY68YKNY9AHRYe2j411LsCECgz0wpnXLhk6noEcqx0G+KcvzZO9/sanAfRA0b1n484FmOHzdw5HPy0F0HnpIcxmsulKA/O3LeTzrSGFl3178j2w2Ubp60b4h95YGp442Llj712swKQ2ss6VyoAbS9uT0p0Ypufur+dThTnwtflgelLVRXiB/iii7OSh904GGNvIoF/SUL/1ytOTU8uWDWTTkzaOnfitjWPQK+WuZ6KDOhlgbCODfrFeebqyCjDmX6YifW2kjWPpawXoiQ5uHxvraAXGNjLom7RNqXpAs155x3KqelihvHPj8GLjGPRLF7ePjXU2wGgjg/5ZCzHLQswO5TLIr/qyc+lroapOCi/QPx07XrleZwOMNjLoJzdipiOHQf7bbu3we2w1SV8L5981HwZ9U4yegbvaPpZ0+rvD6IPXyc0LwM2lGzEnXxJidiKH6of2sZ05+buPq68FoIc63D6WdPvtrT2XjwfQS6dfuWhd7A7cttD8+mItZNtX3Ug640YS9Nf8MDqs0wFmePzQcmgjg95ysG/7cri/IsBsj8976LeiLF/ocvtY0vkG4yJWfxpAb6WHOW00W5cqMGmYvynpn71vT3P//LY6/coF4QV6r+js8P5Y9yck96wMRylmOYDeSsf7hJita7KNzAHLrVub/fo4gF5bGj5/8Hh0XOcDTGojG5XSOj3IBGwuDfWff882pq048D80GGC0j21J+txOQR3ouaIfoxP92FFZRudLacDNpQvkP/vlB0LMFjQZIqxQnlz6nE6f2wDFXD/etO/Fd4jh83emNrKzAfSaELM1jbaQqcBMZBxe0uc20HtLw1+Nnnl7oDdvcRWrpZswQPWgV10m/8Bl8s00uYnMAP/m0udw+lwWXoCkKOPp6In+1Oj3XnkmAEbeX14ZvWv9oRCzCRWYfKXP3epzeNnnMDDW7dsv6/UmwLgJA6wnxEzmtoX6v00ILzcnvADX68Ptl/V6NSU5+uD2prQGbE6I2VwT64y1j21MeAFuqCiPR4/0KsBcHeZ3Ewb4jBBzc7fdWn8bmQrMjQkvwAaWhs99vVcbd3u3p7JYLX8aAOsIMRtrooXMCuUvEl6ADfXk9st6/fsuYZgfuAEh5saaGORvcnlAjoQX4GaK1fnejUj0LsAY5gc2IsR8kQpMs4QX4Gb6Nrw/1svvEob5gY0IMddqYgbmtq+qwCTCC7Cpng3vj/UywBjmB25GiPncvr1F9aPWf54tZMILMIneDe+P9bZOb5gfuBkh5nN1BhjzLxHn37sivACbKsrobUdRfxuN0zC/KgxwE+kB8sf/vFw9UPZZnbdg+l59WQsvHwgvwATmh9FTvQ0waZi/KIthANzEhYtl9UDZ5xBTZ6hoYuYmF+Pwkj7nAG6qiON9HN4f6/eql3JVGxmwqXGIOfPapeijOtu6mth6loP0uZWqfcILMIlirnw2eqzXAaYa5rdSGZhAerA88ds/9zLE1Bkq+jgDkz6n0ucWwESKODv8VfUM21u9X7ZflNHrBAtsTXrQfPH0J8Fs9K0C8+LvPxFegC0pVqP3HUS9DzDD5w8eN8wPbEV66OxTiDlwe31D/H3St88jYCqWqmfXnnPuOKxUBrauTw+fhvinT3gBtmP0auyZNQSYNVYqA9vQl/affXvrnIHp/rclbYjAtpXzvTxceT0BJsYrlfu9zQHYnjSAXa2+vdTd7VHpkGUdxyzrPJjZhPQ50udtdsAO9Xx18noCzNiV4ngAbMObb1+uVuC+/0F3jw/WE2C6+y0pfW6k8JI+VwC2o1idfzqoCDBXDf/rwbNhpTKwTely+s9++WFnQ0wd4eK2W7v5LWktvHwY59/t7zFUYIdUX64hwKxTlKVkC2zbOMSki+pdU+cgf5ekz4WqOrfc3eocMHt9P1x5PQFmHYctgZ1aCzHdm3OoozrStQ1kn81HXezufBQwe6O3j4Z9P1x5PQHmOqowwE6lB1abprZu377uVHnGG+qEF2DHHF3/AgHmOlerMEsBsENduvVx28LsqyNdaVM7+buPhVdgWhyuvAEB5gaKMlRhgKlIIebnv/mw9WuWrVHeXPoYp4/16TMXAmAaPJPemABzA1XSddgSmJLX3/i09WuWrVG+ufGa5PSxBpgS1ZcNCDAbKFbLnwbAlHR9zfI0tLUCkzaNWZMMTJvqy8YEmI3svfKMKgwwTSnEpErM62+0b0NZLTMwLQww401j1iQDU6b6chMCzAaGxw8tq8IA05a2Uv38NzaUdYFNY8CsqL7cnABzM6owwIykh9+TL30UbeEOzOfSsL412cAMLUXMD4MNCTA3oQoDzNLpVy7Gj//Ln8zFtMh4WL9rh0qBfBRF+ezw+TuWgg0JMJtRhQFm6Py7hvvHcj9kaVgfqMFSrO46HtyUALMJVRhg1tIA+D/+059GFZl874f0/ZBl+tgY1gdmTfVlMgLMJFRhgBqcfMkF9xyd/N3H1cfGsD4wY6ovExJgJqAKA9QlDfdX7/RrKWvceN7l9Jl8K2NAd6i+TE6AmZQqDFCTN9++nOVczCzvtNTRorYV43mX9LEAqMFSfDJ61mQiAsyEVGGAOuU4F9PGQ5PbYd4FqFu6+zI8dcgb5RMSYLZCFQaoWZq9aNO9mDZL913MuwANWBo+f/B4MDEBZguqKsyKy6hAvdK9mH/8392LmSXzLkBTUvUl2BIBZouGvz6Y+hOXAqBGqZ2pyzMZTbanpT/TH//zsvsuQBNUX7ZBgNkGSRlowlqI+aCxVcv79s7uW0ZTN2DGW9+0jAFN8Ey5PQLMNlxNysMAaEBTq5ZzPjS5VeOWMXd3gAapvmyTALNNRVlKzEBjxquW07pftmb8Z2dFMtCkIlafCLZFgNmm4fN3DkMVBmhQailLsxuqCJP7rHplRTLQoFE9ezh87uungm3ZFWxbqsKURTEIgAalh/JUiXn4r74Ut92a10HIXKSWsRMvfKTqAuShnP9+sG0qMDuQqjCjBP1sADTs9Tc+1Ra1AS1jQFaKOD58/o6lYNsEmJ0q559y3BLIQdNbynKUDlNqGQNyUqzOm6PeIQFmh1KCLlbLnwZAJlJLWd8PX6Z/9x//l2WHKYGsFEX5tOrLzgkw07D3yjOqMEBOxgP+Z167FH1z+pULDlMCOVqK1V3Hgx0TYKZgePzQcrHiEBGQl3Sc8cRv/1z9yL0ac+HSzg9Jpv+N9O968qWPHaYEspOOVqq+TIcAMyXDXx98JqxVBjKUqjDTGGKf5c2Znc6opH+3vlacgFZwtHKKBJgpctwSyNVOB/xTQJhlVSP9b28nYKWqi0F9IHfFfGlt8hQJMFPkuCWQu+0O+J957WLM2lbDVaoIpeBiUB/IWlqb/KvqGZEpEWCmrEiHiQz0AxlLlYp//Kc/TRwY0lB8Ha1ZqQKT/lmTMKgPtIW1ydPnZPOULf0//9vyof/xiX1RFIMAyFgKDGf+9VLc8x9viX17b/x+VgoKaSi+Lv/2/14e/V6KWDy4+4b/faoc/fw3f47/6/+efUUIYKeqtcnPHTgVTFURTN3g2FsL5aXdr45+uRgALXDfN/eMfuyN225de1/rzbc/raouTV2vv/uu3dXv58Dt87Fvz1wVXF5/49Oqlc2GMaAllk4/d/BQMHUCzIwMHnlnUBbFywEAQO8UZXzf5rHZMAMzIwb6AQB6Kg3uCy8zI8DMkIF+AID+Mbg/WwLMDKVrq8Vq+dMAAKAXqsH90TNgMDMCzKztvfLM6D+XAgCArlsanrjzqWCmBJgZGx4/tFyUrq8CAHRdUYbWsRoIMDWoBvqLwg5wAICuMrhfGwGmJsUtnxroBwDopiWD+/URYGpStZKtKCsCAHRNah0zuF8fhyxrduTRc+m45SAAAGi90cP02eFzB+8NaqMCUzO3YQAAOqScfziolQBTM7dhAAC6wc2XZmgha8iRo+dejTIOBwAAbbR0+rmDh4LaqcA0ZFSFeSIAAGilopx/IGiEANOQdBumCK1kAABto3WsWQJMk/ZceWr0n0sBAEBbLA1P3PlU0BgBpkHVbZiy/H4AANAKWseaJ8A0TCsZAEA7aB3LgwCTA61kAAC50zqWCQEmA1UrWRGOIAEAZErrWD4EmEwMTxw8W5Tl0wEAQFa0juXFIcvMHHn03MujnwYBAEAOHKzMjApMZkblye+PYuVyAADQrNEzmdax/AgwmUnlyWIltJIBADSsKEPrWIa0kGVKKxkAQIOKOH76xEH3+jKkApOpYs/lh7WSAQA0YqlYndcRkykBJlPVauXV0mplAICaaR3LmwCTseHzdw6LKH8aAADUYm1l8sHjQbYEmNztufJUFHE2AACYtaXhiTufCrImwGRurZVs3jwMAMAsWZncGgJMC1itDAAwW+Ze2sMa5RYZPHrueBnxWAAAMD1WJreKCkyb7Ln8+Og/lwIAgGlZKj65/ETQGiowLTM4eu7wqArzcpSxEAAA7EhRzh/SOtYuKjAtMzxx8Kx5GACAnRu9k/+E8NI+AkwLDX998Bn3YQAAti89Sw2fO/hM0DoCTFul+zDmYQAAtmMpLlTPUrSQGZgWGzzyx8VybuVV8zAAABNK915W5+/VOtZeKjAtVt2HWQ1bMwAAJpSenYSXdhNgWm74/MHj5mEAADZXFOXT6dkpaDUtZB1x5NFzL49+GgQAAF8weugdDp87+EDQeiowHVGU8+l67FIAAHC9pVh7VqIDVGA6xJFLAIAvcqyyW1RgOsSRSwCAazlW2T0CTMc4cgkAsKYa2nessnO0kHWUoX4AoM8M7XeXCkxHFXsuPxyG+gGAfjK032EqMB02eOSPi+XcyquG+gGA3ihiuVidv9fcS3epwHRY+sItVsuHAwCgJ4orq98XXrpNgOm44fN3DovVeCIAADquGtr/zddPBZ0mwPSAzWQAQNdV4eXEnU8FnWcGpkdsJgMAOqkoTp0+cUDbfE+owPSIzWQAQActFZ98auNYjwgwPTI8fmi5KOfTPvSlAABov6X0bDM8dWg56A0tZD00OHrucBnxsvXKAEBrWZfcWyowPTQ8cfBsUa4qtQIArWVdcn8JMD01fO7rp6xXBgDayLrkfhNgeqxar1yWTwcAQEtYl4wZGGLw6DvPlFH8MAAAMpbu2g2fu/PxoNcEGCqDR88dLyMeCwCAHLn1wlVayFiz5/Ljozh7NgAA8nPWrRfGVGD4zODYWwvlpd2vjn65GAAAeVi79WLjGFcJMFxj8MgfF8ti5eUQYgCA5gkvfIEAwxcIMQBABoQXbkiA4YaqEDO38mqUsRAAAHUqYrlYnb9XeOFGDPFzQ+kFY5RuH0gvIAEAUJcUXkbPIMILG1GB4aYGR88dLst4NQAAalAUce/wxEGbUdmQCgw3lV5AijKsLQQAZi49cwgvbEYFhokMHjl3rCziFwEAMANVeHn+4PGATQgwTEyIAQBmQXhhK7SQMbH0wlKsxhMBADAlRVE+LbywFQIMWzL89cFnirJ8OgAAdqgKLyfufCpgC7SQsS2DR955qiyKJwMAYBuEF7ZLgGHbhBgAYDuEF3ZCgGFHhBgAYCuEF3ZKgGHHhBgAYBLCC9MgwDAVQgwAcDOjh84nhs8dfCZghwQYpsadGADgRtx5YZoEGKZKiAEA1hNemDYBhqkTYgCARHhhFgQYZmJw9NzhMuLlKGMhAIB+KWJ59JD5wPDEwbMBUybAMDNCDAD0kPDCjAkwzNTgkT8ulsXKy6NfLgYA0HVLRTn/wPD5O5YCZkSAYeaEGADoBeGFWggw1EKIAYBOE16ozVxADdILWnphG0Vm/bAA0C1niwuX7xVeqIsAQ22qEHPL5VGIKU4FANB6RcSzo/DywPDUoeWAmmghoxGDR995pozihwEAtFIR5U+Hz935eEDNVGBoRHrBK8ry6QAAWqcoyqeFF5qiAkOjBo+881RZFE8GANAKo4fHJ4bPHXwmoCECDI0bPPqHh8pi7hcOXgJAxtKByiur3x/+5utmWWmUAEMWrFkGgKwtFUU8PDxx0DZRGifAkA0hBgCy5MYLWTHETzaqNct7Lt9rzTIA5GH0TvfQjRdyowJDlgz3A0CzrEkmVwIM2RJiAKAZNo2RMwGGrNlQBgA1SpvGVsuHh8/fOQzIlABD9gz3A0AtDOvTCob4yV413D96QU2/DABg6gzr0yYqMLSKuRgAmC7D+rSNAEPrDP6nc4+Xc/GTAAC2L827lPG0YX3aRoChlczFAMCOLBVFPDw8cfBsQMuYgaGVzMUAwPZU8y5pWF94oaVUYGg9czEAMBnzLnSBAEMnDB45d6yai3EvBgC+qLrvEk8Mnz94PKDlBBg6w1wMANyQ+y50ihkYOqOai9lz+d5UHg8AoGoZc9+FrlGBoZOsWgag16xIpsMEGDpLSxkAPWVFMp2mhYzO+rylLJ4NAOiB9D2vahkTXugwFRh6oWopm48nbSkDoJO0jNEjAgy9oaUMgI46W5TzDxvUpy8EGHrH4UsAuqLavHnhylPDU4eWA3pCgKGXqsOXRaQQsxgA0DbVYcpyVHW5cxjQMwIMvZVayqJYeaqMeCwAoCVGD2/DuHD5YVUX+kqAofcM+APQCgb1oSLAQBjwByBvVdWlnP++QX0QYOAaBvwByE1Rlk8Pn7/zqQAqAgxcRzUGgEwsFUU87CglXEuAgQ2oxgDQFOuRYWMCDNyEagwANVsqyvL71iPDxgQYmIBqDACzpuoCkxFgYEKqMQDMyNlR1eUJVReYjAADW6QaA8BUpLsuq+VPbRiDrRFgYBuqaszcysko43AAwBa56wLbJ8DADgweOXesLCJVYxYDADaTqi5lPD187uAzAWyLAAM7lKoxUaw8VUY8FgCwkaI4VXzy6fcN6cPOCDAwJaoxAGzAamSYIgEGpsyQPwCVq0P6cfHKM6ouMD0CDMyAtjKAfjOkD7MjwMAMaSsD6B3tYjBjAgzUQFsZQMdpF4PaCDBQE21lAN2kXQzqJcBAzUbVmMGoGvOL0FYG0GprwaV8WrsY1EuAgYaYjwFoKccooVECDDSoaiuLK8fMxwC0gDkXyIIAAxkwHwOQuSKOF6vzT5tzgeYJMJCRFGTKYiXNxwwCgMaZc4H8CDCQocGjf3iojLmfhPkYgEYILpAvAQYyZtAfoHZL1YD+8wePB5AlAQZaQJABmDGbxaA1BBhoEUEGYMpsFoPWEWCgZQbH3lqIi7seL4sibSxbDAC2TnCB1hJgoKXW3ZARZAAmJbhA6wkw0HKCDMAEBBfoDAEGOmItyKwMzMgArCO4QOcIMNBBhv2B3hNcoLMEGOgwQQboIXdcoOMEGOiBq0EmzcgMAqCDRg80wyjLUXC5cxhApwkw0CODR94ZRFEcK6MKMwCtJ7hA/wgw0EPVwH+x8pQgA7RSmm8py2dHb8gcH544eDaAXhFgoMeuBpmHRkHmh2FOBsidwXwgBBjgqjQnE3Pxw7KMwwGQkbU2sXjWYD6QCDDANczJAFmo2sSKUXBZ/an5FmA9AQa4IYcxgUZoEwM2IcAAmxo8+oeHymL+sSjLhwJgBmwTAyYlwAATW7e97EioygA7pdoCbIMAA2yLqgywXaotwE4IMMCOmJUBJjF64Dg7Ci0vqLYAOyXAAFOzboOZFjPg84OTZZxSbQGmRYABZiLdlSnniu9oMYP+qVrEYvWncWFlqNoCTJsAA8zUuhazdFdmEEAnrYWWeCEuXD4utACzJMAAtbm6xeyh0SvPY2UZhwNotavD+Kcjdh0fPn/HUgDUQIABGrEWZq48XkbxnTAvA60xenBYijTXIrQADRFggMYNjp4bVWPSrEzxHZUZyM/nlZYYGsYHmibAAFkZt5mVEakyMwigEdrDgFwJMEC2LACAGlUrj+NsGMQHMifAAK0weOithdg3P4iYe8idGZiSUWgZ/eepolx9wcpjoC0EGKCVxnMzZVmkMDMIYCLmWYC2E2CA1lOdgZsYV1kiTscnl0+psgBtJ8AAnVNVZ8oYlEWqzpSD0a8XAvqiCizFsEhVlnL+lAF8oGsEGKDzBo+8M4iiOFxtNivisEBDp6wfvi/Ls9rCgK4TYIDeEWhoNYEF6DkBBui9a1rOyjId0lwMyES6fF8WMRyFltdGfzEcnjh4NgB6TIABuM7aMc3LoyBTDMoovqlKQ20+q66Ur41+DK02BvgiAQZgAlWVZnUUZIrycBVqrG5mp1JYGVVXqpXGRXE2VueHBu4BNifAAGzTWuvZ6qJKDZtaX1kRVgB2RIABmKLqJs3eXYerJQFrMzULgk2PXK2qlBFnq5mVWB1VWHafFVYApkeAAajBWgtaCjPF4dG78IsqNi0nqAA0RoABaNDnFZu1cDMKNneNQs3i6MV5FHJsQ2vS1YCyNPrFUhHl26O/szT622fjk8tLBusBmiPAAGTss8rNXLF4tXKzFnCKWKgCjgrO9qzNpCyXaR4lyuXPAkq5uqySApA3AQag5aq1z3FlsarixFz1cxV0olhIMzhVNWcUeDofdsahpKqaFMufBZNy9OvRfzcKgksRu5bi4sVlFRSA9hJgAHpkrWVt70IVeJKqdW1uIVV3xv83a+Gn+i+rADT++8UNWtq22+ZWrQ/+4v/W0rr/g89+XZTlB1UAGQeRJIWRudFfr84vCyQAAAAAAAAAAAAAAAAAAAAAAAAAAAAAAAAAAAAAAAAAAAAAAAAAAAAAAAAAAAAAAAAAAAAAAAAAAAAAAAAAAAAAAAAAAAAAAAAAAAAAAAAAAAAAAAAAAAAAAAAAAAAAAAAAAAAAAAAAAAAAAADA1v13eXZcKuPogd8AAAAASUVORK5CYII=;" vertex="1" parent="-2m1uqKc6dWiNXl9zCf8-49">
          <mxGeometry x="16.5" width="66" height="66" as="geometry" />
        </mxCell>
        <mxCell id="-2m1uqKc6dWiNXl9zCf8-48" value="認証&lt;div&gt;プロバイダー&lt;/div&gt;" style="text;html=1;align=center;verticalAlign=middle;resizable=0;points=[];autosize=1;strokeColor=none;fillColor=none;fontSize=14;" vertex="1" parent="-2m1uqKc6dWiNXl9zCf8-49">
          <mxGeometry y="63" width="99" height="46" as="geometry" />
        </mxCell>
        <mxCell id="-2m1uqKc6dWiNXl9zCf8-53" value="" style="group" vertex="1" connectable="0" parent="-2m1uqKc6dWiNXl9zCf8-7">
          <mxGeometry x="553" y="-6" width="119" height="87" as="geometry" />
        </mxCell>
        <mxCell id="-2m1uqKc6dWiNXl9zCf8-51" value="" style="shape=image;verticalLabelPosition=bottom;labelBackgroundColor=default;verticalAlign=top;aspect=fixed;imageAspect=0;editableCssRules=.*;image=data:image/svg+xml,PHN2ZyB4bWxucz0iaHR0cDovL3d3dy53My5vcmcvMjAwMC9zdmciIHZpZXdCb3g9Ii0wLjAxMDExMzI4ODY0ODQyNjUzMyAtMC4wNTg4MjgwNTU4NTg2MTIwNiAyMDkuNTM5MzUyNDE2OTkyMiA5NC44NTkyOTg3MDYwNTQ2OSIgZGF0YS1uYW1lPSJMYXllciAxIiBpZD0iTGF5ZXJfMSIgd2lkdGg9IjIwOS41MzkzNTI0MTY5OTIyIiBoZWlnaHQ9Ijk0Ljg1OTI5ODcwNjA1NDY5Ij48ZGVmcz48c3R5bGU+LmNscy0xe2ZpbGw6I2Y0ODAxZjt9LmNscy0ye2ZpbGw6I2Y5YWI0MTt9PC9zdHlsZT48L2RlZnM+PHBhdGggZD0iTTE0My4wNSw5My40MmwxLjA3LTMuNzFjMS4yNy00LjQxLjgtOC40OC0xLjM0LTExLjQ4LTItMi43Ni01LjI2LTQuMzgtOS4yNS00LjU3TDU4LDcyLjdhMS40NywxLjQ3LDAsMCwxLTEuMzUtMiwyLDIsMCwwLDEsMS43NS0xLjM0bDc2LjI2LTFjOS0uNDEsMTguODQtNy43NSwyMi4yNy0xNi43MWw0LjM0LTExLjM2YTIuNjgsMi42OCwwLDAsMCwuMTgtMSwzLjMxLDMuMzEsMCwwLDAtLjA2LS41NCw0OS42Nyw0OS42NywwLDAsMC05NS40OS01LjE0LDIyLjM1LDIyLjM1LDAsMCwwLTM1LDIzLjQyQTMxLjczLDMxLjczLDAsMCwwLC4zNCw5My40NWExLjQ3LDEuNDcsMCwwLDAsMS40NSwxLjI3bDEzOS40OSwwaDBBMS44MywxLjgzLDAsMCwwLDE0My4wNSw5My40MloiIGNsYXNzPSJjbHMtMSIvPjxwYXRoIGQ9Ik0xNjguMjIsNDEuMTVxLTEsMC0yLjEuMDZhLjg4Ljg4LDAsMCwwLS4zMi4wNywxLjE3LDEuMTcsMCwwLDAtLjc2LjhsLTMsMTAuMjZjLTEuMjgsNC40MS0uODEsOC40OCwxLjM0LDExLjQ4YTExLjY1LDExLjY1LDAsMCwwLDkuMjQsNC41N2wxNi4xMSwxYTEuNDQsMS40NCwwLDAsMSwxLjE0LjYyLDEuNSwxLjUsMCwwLDEsLjE3LDEuMzcsMiwyLDAsMCwxLTEuNzUsMS4zNGwtMTYuNzMsMWMtOS4wOS40Mi0xOC44OCw3Ljc1LTIyLjMxLDE2LjdsLTEuMjEsMy4xNmEuOS45LDAsMCwwLC43OSwxLjIyaDU3LjYzQTEuNTUsMS41NSwwLDAsMCwyMDgsOTMuNjNhNDEuMzQsNDEuMzQsMCwwLDAtMzkuNzYtNTIuNDhaIiBjbGFzcz0iY2xzLTIiLz48L3N2Zz4=;" vertex="1" parent="-2m1uqKc6dWiNXl9zCf8-53">
          <mxGeometry x="5.680000000000007" width="90.63" height="41" as="geometry" />
        </mxCell>
        <mxCell id="-2m1uqKc6dWiNXl9zCf8-52" value="&lt;span style=&quot;background-color: transparent; color: light-dark(rgb(0, 0, 0), rgb(255, 255, 255));&quot;&gt;ドメイン管理&lt;/span&gt;&lt;div&gt;&lt;span style=&quot;background-color: transparent; color: light-dark(rgb(0, 0, 0), rgb(255, 255, 255));&quot;&gt;DNSサーバー&lt;/span&gt;&lt;/div&gt;" style="text;html=1;align=center;verticalAlign=middle;resizable=0;points=[];autosize=1;strokeColor=none;fillColor=none;fontSize=14;" vertex="1" parent="-2m1uqKc6dWiNXl9zCf8-53">
          <mxGeometry x="1" y="39" width="102" height="46" as="geometry" />
        </mxCell>
        <mxCell id="-2m1uqKc6dWiNXl9zCf8-56" value="" style="strokeColor=#dddddd;shadow=1;strokeWidth=1;rounded=1;absoluteArcSize=1;arcSize=2;" vertex="1" parent="-2m1uqKc6dWiNXl9zCf8-7">
          <mxGeometry x="549" y="487" width="120" height="60" as="geometry" />
        </mxCell>
        <mxCell id="-2m1uqKc6dWiNXl9zCf8-57" value="Logging" style="editableCssRules=.*;html=1;fontColor=#999999;shape=image;verticalLabelPosition=middle;verticalAlign=middle;labelPosition=right;align=left;spacingLeft=20;part=1;points=[];imageAspect=0;image=data:image/svg+xml,PHN2ZyB4bWxucz0iaHR0cDovL3d3dy53My5vcmcvMjAwMC9zdmciIHhtbG5zOnY9Imh0dHBzOi8vdmVjdGEuaW8vbmFubyIgd2lkdGg9IjIwIiBoZWlnaHQ9IjE5IiB2aWV3Qm94PSIwIDAgMjAgMTkiPiYjeGE7CTxzdHlsZSB0eXBlPSJ0ZXh0L2NzcyI+JiN4YTsJLnN0MHtmaWxsOiM0Mjg1ZjQ7fSYjeGE7CS5zdDF7ZmlsbDojNjY5ZGY2O30mI3hhOwkuc3Qye2ZpbGw6I2FlY2JmYTt9JiN4YTsJPC9zdHlsZT4mI3hhOwk8ZyBjbGFzcz0ic3QwIj4mI3hhOwkJPHBhdGggZD0iTTQgOWg0djJINHptLTIgN2g2djJIMnoiLz4mI3hhOwkJPHBhdGggZD0iTTQgNEgydjEyaDJ6Ii8+JiN4YTsJPC9nPiYjeGE7CTxwYXRoIGNsYXNzPSJzdDEiIGQ9Ik0yMCAxSDd2NGgxM3ptMCA3SDd2NGgxM3ptMCA3SDd2NGgxM3oiLz4mI3hhOwk8cGF0aCBjbGFzcz0ic3QyIiBkPSJNNiAwSDB2Nmg2eiIvPiYjeGE7PC9zdmc+;" vertex="1" parent="-2m1uqKc6dWiNXl9zCf8-56">
          <mxGeometry width="30" height="28" relative="1" as="geometry">
            <mxPoint x="15" y="16" as="offset" />
          </mxGeometry>
        </mxCell>
        <mxCell id="ulTmoi0-G0CuCnYwr7cr-8" value="" style="group" connectable="0" vertex="1" parent="-2m1uqKc6dWiNXl9zCf8-7">
          <mxGeometry x="894" y="472" width="120" height="106" as="geometry" />
        </mxCell>
        <mxCell id="ulTmoi0-G0CuCnYwr7cr-3" value="" style="strokeColor=#dddddd;shadow=1;strokeWidth=1;rounded=1;absoluteArcSize=1;arcSize=2;" vertex="1" parent="ulTmoi0-G0CuCnYwr7cr-8">
          <mxGeometry width="120" height="60" as="geometry" />
        </mxCell>
        <mxCell id="ulTmoi0-G0CuCnYwr7cr-4" value="Cloud&#xa;Storage" style="editableCssRules=.*;html=1;fontColor=#999999;shape=image;verticalLabelPosition=middle;verticalAlign=middle;labelPosition=right;align=left;spacingLeft=20;part=1;points=[];imageAspect=0;image=data:image/svg+xml,PHN2ZyB4bWxucz0iaHR0cDovL3d3dy53My5vcmcvMjAwMC9zdmciIHhtbG5zOnY9Imh0dHBzOi8vdmVjdGEuaW8vbmFubyIgd2lkdGg9IjIwIiBoZWlnaHQ9IjE2IiB2aWV3Qm94PSIwIDAgMjAgMTYiPiYjeGE7CTxzdHlsZSB0eXBlPSJ0ZXh0L2NzcyI+JiN4YTsJLnN0MHtmaWxsOiM0Mjg1ZjQ7fSYjeGE7CS5zdDF7ZmlsbDojNjY5ZGY2O30mI3hhOwkuc3Qye2ZpbGw6I2FlY2JmYTt9JiN4YTsJLnN0M3tmaWxsOiNmZmY7fSYjeGE7CTwvc3R5bGU+JiN4YTsJPHBhdGggY2xhc3M9InN0MiIgZD0iTTAgMGgyMHY3SDB6Ii8+JiN4YTsJPHBhdGggY2xhc3M9InN0MSIgZD0iTTE4IDBoMnY3aC0yeiIvPiYjeGE7CTxwYXRoIGNsYXNzPSJzdDAiIGQ9Ik0xOCA3bDItN2gtMnoiLz4mI3hhOwk8cGF0aCBjbGFzcz0ic3QxIiBkPSJNMCAwaDJ2N0gweiIvPiYjeGE7CTxnIGNsYXNzPSJzdDMiPiYjeGE7CQk8cGF0aCBkPSJNNCAzaDZ2MUg0eiIvPiYjeGE7CQk8cmVjdCB4PSIxMyIgeT0iMiIgd2lkdGg9IjMiIGhlaWdodD0iMyIgcng9IjEuNSIvPiYjeGE7CTwvZz4mI3hhOwk8cGF0aCBjbGFzcz0ic3QyIiBkPSJNMCA5aDIwdjdIMHoiLz4mI3hhOwk8cGF0aCBjbGFzcz0ic3QxIiBkPSJNMTggOWgydjdoLTJ6Ii8+JiN4YTsJPHBhdGggY2xhc3M9InN0MCIgZD0iTTE4IDE2bDItN2gtMnoiLz4mI3hhOwk8cGF0aCBjbGFzcz0ic3QxIiBkPSJNMCA5aDJ2N0gweiIvPiYjeGE7CTxnIGNsYXNzPSJzdDMiPiYjeGE7CQk8cGF0aCBkPSJNNCAxMmg2djFINHoiLz4mI3hhOwkJPHJlY3QgeD0iMTMiIHk9IjExIiB3aWR0aD0iMyIgaGVpZ2h0PSIzIiByeD0iMS41Ii8+JiN4YTsJPC9nPiYjeGE7PC9zdmc+;" vertex="1" parent="ulTmoi0-G0CuCnYwr7cr-3">
          <mxGeometry width="30" height="24" relative="1" as="geometry">
            <mxPoint x="15" y="18" as="offset" />
          </mxGeometry>
        </mxCell>
        <mxCell id="ulTmoi0-G0CuCnYwr7cr-7" value="家計簿&lt;div&gt;データ&lt;/div&gt;" style="text;html=1;align=center;verticalAlign=middle;resizable=0;points=[];autosize=1;strokeColor=none;fillColor=none;fontSize=14;" vertex="1" parent="ulTmoi0-G0CuCnYwr7cr-8">
          <mxGeometry x="31.5" y="60" width="60" height="46" as="geometry" />
        </mxCell>
        <mxCell id="ulTmoi0-G0CuCnYwr7cr-10" value="取得" style="text;html=1;align=center;verticalAlign=middle;resizable=0;points=[];autosize=1;strokeColor=none;fillColor=none;fontSize=14;" vertex="1" parent="-2m1uqKc6dWiNXl9zCf8-7">
          <mxGeometry x="831" y="472" width="46" height="29" as="geometry" />
        </mxCell>
        <mxCell id="ulTmoi0-G0CuCnYwr7cr-11" value="" style="shape=flexArrow;endArrow=classic;html=1;rounded=0;" edge="1" parent="-2m1uqKc6dWiNXl9zCf8-7">
          <mxGeometry width="50" height="50" relative="1" as="geometry">
            <mxPoint x="952.08" y="409" as="sourcePoint" />
            <mxPoint x="952.08" y="464" as="targetPoint" />
          </mxGeometry>
        </mxCell>
        <mxCell id="ulTmoi0-G0CuCnYwr7cr-12" value="移行予定" style="text;html=1;align=center;verticalAlign=middle;resizable=0;points=[];autosize=1;strokeColor=none;fillColor=none;fontSize=14;" vertex="1" parent="-2m1uqKc6dWiNXl9zCf8-7">
          <mxGeometry x="967" y="416" width="74" height="29" as="geometry" />
        </mxCell>
        <mxCell id="-2m1uqKc6dWiNXl9zCf8-33" value="情報" parent="0" />
        <mxCell id="-2m1uqKc6dWiNXl9zCf8-34" value="" style="shape=image;verticalLabelPosition=bottom;labelBackgroundColor=default;verticalAlign=top;aspect=fixed;imageAspect=0;image=https://streamlit.io/images/brand/streamlit-logo-primary-colormark-darktext.png;" vertex="1" parent="-2m1uqKc6dWiNXl9zCf8-33">
          <mxGeometry x="532" y="270" width="149.72" height="41.55" as="geometry" />
        </mxCell>
        <mxCell id="-2m1uqKc6dWiNXl9zCf8-37" style="edgeStyle=orthogonalEdgeStyle;rounded=0;orthogonalLoop=1;jettySize=auto;html=1;" edge="1" parent="-2m1uqKc6dWiNXl9zCf8-33" source="-2m1uqKc6dWiNXl9zCf8-23" target="-2m1uqKc6dWiNXl9zCf8-34">
          <mxGeometry relative="1" as="geometry" />
        </mxCell>
        <mxCell id="-2m1uqKc6dWiNXl9zCf8-62" value="Push" style="text;html=1;align=center;verticalAlign=middle;resizable=0;points=[];autosize=1;strokeColor=none;fillColor=none;fontSize=14;" vertex="1" parent="-2m1uqKc6dWiNXl9zCf8-33">
          <mxGeometry x="412" y="234" width="50" height="29" as="geometry" />
        </mxCell>
        <mxCell id="-2m1uqKc6dWiNXl9zCf8-63" value="Pull" style="text;html=1;align=center;verticalAlign=middle;resizable=0;points=[];autosize=1;strokeColor=none;fillColor=none;fontSize=14;" vertex="1" parent="-2m1uqKc6dWiNXl9zCf8-33">
          <mxGeometry x="609" y="179" width="41" height="29" as="geometry" />
        </mxCell>
        <mxCell id="-2m1uqKc6dWiNXl9zCf8-64" value="送信" style="text;html=1;align=center;verticalAlign=middle;resizable=0;points=[];autosize=1;strokeColor=none;fillColor=none;fontSize=14;" vertex="1" parent="-2m1uqKc6dWiNXl9zCf8-33">
          <mxGeometry x="563" y="425" width="46" height="29" as="geometry" />
        </mxCell>
        <mxCell id="-2m1uqKc6dWiNXl9zCf8-65" value="認証" style="text;html=1;align=center;verticalAlign=middle;resizable=0;points=[];autosize=1;strokeColor=none;fillColor=none;fontSize=14;" vertex="1" parent="-2m1uqKc6dWiNXl9zCf8-33">
          <mxGeometry x="797" y="182" width="46" height="29" as="geometry" />
        </mxCell>
        <mxCell id="-2m1uqKc6dWiNXl9zCf8-66" value="取得" style="text;html=1;align=center;verticalAlign=middle;resizable=0;points=[];autosize=1;strokeColor=none;fillColor=none;fontSize=14;" vertex="1" parent="-2m1uqKc6dWiNXl9zCf8-33">
          <mxGeometry x="832" y="291" width="46" height="29" as="geometry" />
        </mxCell>
        <mxCell id="ulTmoi0-G0CuCnYwr7cr-13" value="名称未設定レイヤ" parent="0" />
        <mxCell id="ulTmoi0-G0CuCnYwr7cr-14" value="名称未設定レイヤ" parent="0" />
      </root>
    </mxGraphModel>
  </diagram>
</mxfile>
